<?xml version="1.0" encoding="UTF-8" standalone="no"?><!DOCTYPE svg PUBLIC "-//W3C//DTD SVG 1.1//EN" "http://www.w3.org/Graphics/SVG/1.1/DTD/svg11.dtd"><svg width="249px" height="244px" version="1.1" xmlns="http://www.w3.org/2000/svg" xmlns:xlink="http://www.w3.org/1999/xlink" xml:space="preserve" xmlns:serif="http://www.serif.com/" style="fill-rule:evenodd;clip-rule:evenodd;stroke-linejoin:round;stroke-miterlimit:2;"><g><path d="M173.721,207.056c-11.408,11.889 -22.91,23.142 -45.55,36.286c-5.865,3.405 -41.143,-23.522 -57.691,-41.585c-6.411,-6.998 -39.648,-43.281 -57.223,-103.915c-1.335,-4.605 -17.065,-58.877 -10.8,-58.95c4.768,-0.055 34.966,-0.406 59.101,-7.697c51.257,-15.485 58.682,-33.562 63.693,-30.116c50.89,35.003 80.854,36.441 117.183,38.115c4.76,0.219 7.159,-0.955 6.379,3.659c-12.373,73.264 -35.981,122.612 -75.092,164.203Zm-112.853,-128.543c2.519,1.258 6.496,0.225 25.153,32.518c8.187,14.171 30.002,62.81 35.925,78.562c1.868,4.968 1.285,5.049 2.762,10.067c0.578,1.964 1.923,1.47 2.228,-0.536c0.739,-4.863 0.745,-4.799 2.47,-9.352c2.399,-6.333 22.315,-58.905 33.358,-77.805c17.129,-29.314 17.589,-29.668 29.776,-39.028c-0.558,-0.3 -0.702,-1.123 -1.26,-1.423c-0.507,-0.272 -0.322,0.323 -5.871,4.165c-24.112,16.696 -80.274,23.743 -122.962,0.997c-0.943,0.896 -0.638,1.015 -1.58,1.834Z" style="fill:#fbcc39;"/><g><path d="M240.466,41.707c-0.397,2.975 -1.751,1.998 -14.821,9.411c-41.108,23.314 -68.676,36.892 -127.927,3.178c-2.253,-1.282 -4.917,-3.035 -16.383,-8.24c-13.521,-6.138 -13.752,-6.373 -26.787,-8.397c0.985,-1.496 0.901,-1.516 1.005,-1.628c16.794,-2.257 42.365,-11.892 64.566,-27.702c5.615,-3.998 5.98,-0.704 14.378,4.374c4.051,2.449 49.465,32.124 105.968,29.004Z" style="fill:url(#_Linear1);"/><path d="M155.414,81.755c-0.872,0.261 -0.782,0.36 -1.66,0.497c-53.451,8.32 -73.766,2.623 -131.418,-31.268c-11.864,-6.974 -17.22,-9.316 -12.912,-9.282c23.87,0.187 24.028,-3.206 34.045,-2.202c28.255,2.831 52.791,18.565 60.227,22.846c40.689,23.427 52.349,15.448 52.365,17.899c0.002,0.294 -0.684,0.264 -0.682,0.558l0.034,0.953Z" style="fill:url(#_Linear2);"/></g><g><g><path d="M161.335,212.689c-1.167,1.373 -1.136,1.278 -2.322,2.732c-8.219,10.07 -29.233,23.358 -30.669,24.075c-1.058,0.528 -1.567,-0.384 -1.282,-14.724c1.289,-64.671 54.906,-86.041 63.129,-93.381c1.735,-1.549 3.1,-1.857 2.818,0.399c-2.468,19.775 0.514,41.748 -31.675,80.899Z" style="fill:url(#_Linear3);"/><path d="M175.445,200.783c-0.15,-0.435 -0.66,-0.683 -0.81,-1.118c-1.482,-4.287 19.756,-13.171 22.122,-71.863c0.239,-5.932 16.844,-8.286 33.772,-32.942c4.654,-6.779 1.737,1.662 1.655,1.842c-12.496,27.364 -8.478,42.209 -56.738,104.081Z" style="fill:url(#_Linear4);"/></g><g><path d="M197.696,72.129c29.133,-20.444 33.54,-19.631 46.781,-28.778c1.109,0.316 1.43,0.259 1.166,1.444c-7.208,32.441 -6.234,45.11 -46.14,75.059c-5.243,3.935 -2.647,-2.559 -7.951,-29.086c-0.3,-1.502 -2.379,-9.537 -1.152,-12.007c0.327,-0.659 0.693,-1.391 7.295,-6.633Z" style="fill:url(#_Linear5);"/><path d="M142.277,164.797c5.477,-9.946 8.095,-20.063 16.591,-35.781c1.976,-3.655 27.423,-50.732 28.703,-43.29c3.336,19.384 4.635,19.143 5.221,36.05c0.241,6.948 -13.458,7.521 -40.112,33.271c-7.604,7.346 -7.511,12.262 -10.404,9.75Z" style="fill:url(#_Linear6);"/><path d="M142.277,164.797c5.477,-9.946 8.095,-20.063 16.591,-35.781c1.976,-3.655 27.423,-50.732 28.703,-43.29c3.336,19.384 4.635,19.143 5.221,36.05c0.241,6.948 -13.458,7.521 -40.112,33.271c-7.604,7.346 -7.511,12.262 -10.404,9.75Z" style="fill:url(#_Linear7);"/></g></g><g><g><path d="M88.86,212.389c-31.007,-36.338 -31.392,-71.752 -32.119,-77.634c-0.038,-0.311 -0.639,-5.176 1.508,-3.61c16.067,11.717 34.624,21.193 51.737,44.96c15.659,21.748 16.262,64.732 12.504,62.558c-18.629,-10.776 -18.741,-10.757 -33.63,-26.274Z" style="fill:url(#_Linear8);"/><path d="M81.683,207.685c-0.441,-0.154 -0.869,0.648 -1.31,0.494c-0.759,-0.265 -1.807,-2.177 -1.925,-2.393c-3.896,-7.114 -38.94,-38.237 -58.01,-99.997c-0.308,-0.997 -7.315,-19.426 -1.456,-10.611c15.038,22.623 32.843,28.179 33.467,33.608c5.926,51.573 12.1,51.833 29.234,78.899Z" style="fill:url(#_Linear9);"/></g><g><path d="M55.124,76.109c4.17,4.199 6.102,4.048 4.396,9.7c-9.245,30.644 -4.548,38.658 -10.392,34.423c-38.755,-28.09 -39.579,-48.733 -45.202,-75.47c-0.801,-3.809 2.005,0.251 30.288,16.45c16.658,9.541 20.675,14.673 20.909,14.897Z" style="fill:url(#_Linear10);"/><path d="M104.371,163.198c-27.619,-30.161 -32.994,-25.67 -46.779,-37.581c-4.141,-3.578 3.237,-32.096 3.939,-34.809c0.514,-1.989 0.911,-6.756 4.512,-1.703c24.542,34.428 29.377,54.103 39.554,72.667c-0.409,0.475 -0.817,0.951 -1.226,1.426Z" style="fill:url(#_Linear11);"/></g></g></g><defs><linearGradient id="_Linear1" x1="0" y1="0" x2="1" y2="0" gradientUnits="userSpaceOnUse" gradientTransform="matrix(-164,-5,5,-164,213.947511,51.286899)"><stop offset="0" style="stop-color:#d984d8;stop-opacity:1"/><stop offset="1" style="stop-color:#581783;stop-opacity:1"/></linearGradient><linearGradient id="_Linear2" x1="0" y1="0" x2="1" y2="0" gradientUnits="userSpaceOnUse" gradientTransform="matrix(-164,-5,5,-164,213.947511,51.286899)"><stop offset="0" style="stop-color:#d984d8;stop-opacity:1"/><stop offset="1" style="stop-color:#581783;stop-opacity:1"/></linearGradient><linearGradient id="_Linear3" x1="0" y1="0" x2="1" y2="0" gradientUnits="userSpaceOnUse" gradientTransform="matrix(98,-162,162,98,132.947511,225.286899)"><stop offset="0" style="stop-color:#0ef154;stop-opacity:1"/><stop offset="1" style="stop-color:#02b15b;stop-opacity:1"/></linearGradient><linearGradient id="_Linear4" x1="0" y1="0" x2="1" y2="0" gradientUnits="userSpaceOnUse" gradientTransform="matrix(98,-162,162,98,132.947511,225.286899)"><stop offset="0" style="stop-color:#0ef154;stop-opacity:1"/><stop offset="1" style="stop-color:#02b15b;stop-opacity:1"/></linearGradient><linearGradient id="_Linear5" x1="0" y1="0" x2="1" y2="0" gradientUnits="userSpaceOnUse" gradientTransform="matrix(98,-162,162,98,132.947511,225.286899)"><stop offset="0" style="stop-color:#0ef154;stop-opacity:1"/><stop offset="1" style="stop-color:#02b15b;stop-opacity:1"/></linearGradient><linearGradient id="_Linear6" x1="0" y1="0" x2="1" y2="0" gradientUnits="userSpaceOnUse" gradientTransform="matrix(98,-162,162,98,132.947511,225.286899)"><stop offset="0" style="stop-color:#0ef154;stop-opacity:1"/><stop offset="1" style="stop-color:#02b15b;stop-opacity:1"/></linearGradient><linearGradient id="_Linear7" x1="0" y1="0" x2="1" y2="0" gradientUnits="userSpaceOnUse" gradientTransform="matrix(98,-162,162,98,132.947511,225.286899)"><stop offset="0" style="stop-color:#0ef154;stop-opacity:1"/><stop offset="1" style="stop-color:#02b15b;stop-opacity:1"/></linearGradient><linearGradient id="_Linear8" x1="0" y1="0" x2="1" y2="0" gradientUnits="userSpaceOnUse" gradientTransform="matrix(-88,-151,151,-88,111.947511,220.286899)"><stop offset="0" style="stop-color:#0476a0;stop-opacity:1"/><stop offset="1" style="stop-color:#07bcc7;stop-opacity:1"/></linearGradient><linearGradient id="_Linear9" x1="0" y1="0" x2="1" y2="0" gradientUnits="userSpaceOnUse" gradientTransform="matrix(-88,-151,151,-88,111.947511,220.286899)"><stop offset="0" style="stop-color:#0476a0;stop-opacity:1"/><stop offset="1" style="stop-color:#07bcc7;stop-opacity:1"/></linearGradient><linearGradient id="_Linear10" x1="0" y1="0" x2="1" y2="0" gradientUnits="userSpaceOnUse" gradientTransform="matrix(-88,-151,151,-88,111.947511,220.286899)"><stop offset="0" style="stop-color:#0476a0;stop-opacity:1"/><stop offset="1" style="stop-color:#07bcc7;stop-opacity:1"/></linearGradient><linearGradient id="_Linear11" x1="0" y1="0" x2="1" y2="0" gradientUnits="userSpaceOnUse" gradientTransform="matrix(-88,-151,151,-88,111.947511,220.286899)"><stop offset="0" style="stop-color:#0476a0;stop-opacity:1"/><stop offset="1" style="stop-color:#07bcc7;stop-opacity:1"/></linearGradient></defs></svg>
