<?xml version="1.0" encoding="UTF-8" standalone="no"?><!DOCTYPE svg PUBLIC "-//W3C//DTD SVG 1.1//EN" "http://www.w3.org/Graphics/SVG/1.1/DTD/svg11.dtd"><svg width="2486px" height="2552px" version="1.1" xmlns="http://www.w3.org/2000/svg" xmlns:xlink="http://www.w3.org/1999/xlink" xml:space="preserve" xmlns:serif="http://www.serif.com/" style="fill-rule:evenodd;clip-rule:evenodd;stroke-linejoin:round;stroke-miterlimit:2;"><g id="Artboard1" transform="matrix(1,0,0,1,-3166,-313)"><rect x="3166" y="313" width="2486" height="2552" style="fill:none;"/><clipPath id="_clip1"><rect x="3166" y="313" width="2486" height="2552"/></clipPath><g clip-path="url(#_clip1)"><g><rect x="0" y="0" width="6000" height="3000" style="fill:#fff;fill-rule:nonzero;"/><path d="M5562.31,1500c0,645.26 -523.08,1168.34 -1168.34,1168.34c-645.26,0 -1168.35,-523.08 -1168.35,-1168.34c0,-645.262 523.09,-1168.345 1168.35,-1168.345c645.26,0 1168.34,523.083 1168.34,1168.345Z" style="fill:#224091;fill-rule:nonzero;"/><path d="M4393.97,755.904l19.96,61.429l64.59,0l-52.26,37.965l19.96,61.429l-52.25,-37.965l-52.26,37.965l19.96,-61.429l-52.25,-37.965l64.59,0l19.96,-61.429Z" style="fill:#f9cc10;fill-rule:nonzero;"/><path d="M4021.92,855.594l48,43.219l55.939,-32.295l-26.27,59.006l48,43.219l-64.239,-6.751l-26.27,59.008l-13.43,-63.181l-64.24,-6.751l55.94,-32.295l-13.43,-63.179Z" style="fill:#f9cc10;fill-rule:nonzero;"/><path d="M3749.56,1127.95l63.18,13.43l32.3,-55.94l6.75,64.24l63.18,13.43l-59.01,26.27l6.75,64.24l-43.22,-48l-59,26.27l32.29,-55.94l-43.22,-48Z" style="fill:#f9cc10;fill-rule:nonzero;"/><path d="M3649.87,1500l61.43,-19.96l0,-64.59l37.97,52.25l61.43,-19.95l-37.97,52.25l37.97,52.25l-61.43,-19.95l-37.97,52.25l0,-64.59l-61.43,-19.96Z" style="fill:#f9cc10;fill-rule:nonzero;"/><path d="M3749.56,1872.05l43.22,-48l-32.29,-55.94l59,26.27l43.22,-48l-6.75,64.24l59.01,26.27l-63.18,13.43l-6.75,64.24l-32.3,-55.94l-63.18,13.43Z" style="fill:#f9cc10;fill-rule:nonzero;"/><path d="M4021.92,2144.41l13.43,-63.18l-55.94,-32.3l64.24,-6.75l13.43,-63.18l26.27,59.01l64.239,-6.75l-48,43.22l26.27,59l-55.939,-32.29l-48,43.22Z" style="fill:#f9cc10;fill-rule:nonzero;"/><path d="M4393.97,2244.1l-19.96,-61.43l-64.59,0l52.25,-37.97l-19.96,-61.43l52.26,37.97l52.25,-37.97l-19.96,61.43l52.26,37.97l-64.59,0l-19.96,61.43Z" style="fill:#f9cc10;fill-rule:nonzero;"/><path d="M4766.02,2144.41l-48,-43.22l-55.94,32.29l26.27,-59l-48,-43.22l64.24,6.75l26.27,-59.01l13.43,63.18l64.23,6.75l-55.93,32.3l13.43,63.18Z" style="fill:#f9cc10;fill-rule:nonzero;"/><path d="M5038.38,1872.05l-63.18,-13.43l-32.3,55.94l-6.75,-64.24l-63.18,-13.43l59.01,-26.27l-6.75,-64.24l43.21,48l59.01,-26.27l-32.29,55.94l43.22,48Z" style="fill:#f9cc10;fill-rule:nonzero;"/><path d="M5138.06,1500l-61.42,19.96l0,64.59l-37.97,-52.25l-61.43,19.95l37.97,-52.25l-37.97,-52.25l61.43,19.95l37.97,-52.25l0,64.59l61.42,19.96Z" style="fill:#f9cc10;fill-rule:nonzero;"/><path d="M5038.38,1127.95l-43.22,48l32.29,55.94l-59.01,-26.27l-43.21,48l6.75,-64.24l-59.01,-26.27l63.18,-13.43l6.75,-64.24l32.3,55.94l63.18,-13.43Z" style="fill:#f9cc10;fill-rule:nonzero;"/><path d="M4766.02,855.594l-13.43,63.179l55.93,32.295l-64.23,6.751l-13.43,63.181l-26.27,-59.008l-64.24,6.751l48,-43.219l-26.27,-59.006l55.94,32.295l48,-43.219Z" style="fill:#f9cc10;fill-rule:nonzero;"/><path d="M4058.39,1106.23c10.54,0 20.39,3.76 29.55,11.27c9.149,7.52 16.76,18.18 22.819,31.98l29.451,-45.07c-6.98,-17.26 -17.851,-30.61 -32.61,-40.06c-14.76,-9.44 -31.95,-14.16 -51.58,-14.16c-39.26,0 -69.76,19.34 -91.5,58.02c-21.74,38.68 -32.61,93.26 -32.61,163.71c0,74.32 10.47,130.06 31.42,167.22c20.95,37.16 52.37,55.73 94.27,55.73c17.79,0 33.63,-2.38 47.53,-7.15c13.899,-4.77 23.62,-8.48 29.149,-11.12l0,-204.07l-94.859,0l0,57.87l55.73,0l0,102.91c-9.49,3.68 -20.42,5.52 -32.81,5.52c-29.25,0 -51.25,-14.16 -66,-42.49c-14.76,-28.32 -22.14,-70.81 -22.14,-127.46c0,-51.78 7.38,-91.83 22.14,-120.16c14.75,-28.32 35.44,-42.49 62.05,-42.49Z" style="fill:#fff;fill-rule:nonzero;"/><path d="M4316.79,1392.84c-14.55,25.39 -36.26,38.08 -65.11,38.08l-26.88,0l0,-316.77l26.88,0c28.85,0 50.56,13.66 65.11,40.97c14.56,27.31 21.84,68.48 21.84,123.51c0,50.76 -7.28,88.83 -21.84,114.21Zm-65.11,-336.56l-67.99,0l0,432.51l67.99,0c85.64,0 128.45,-70.06 128.45,-210.16c0,-148.23 -42.81,-222.35 -128.45,-222.35Z" style="fill:#fff;fill-rule:nonzero;"/><path d="M4556.42,1272.08c-11.07,16.55 -27.4,24.82 -49.01,24.82l-41.5,0l0,-182.75l41.5,0c21.61,0 37.94,7.22 49.01,21.63c11.07,14.42 16.6,35.63 16.6,63.66c0,31.88 -5.53,56.08 -16.6,72.64Zm30.93,-179.56c-18.12,-24.15 -44.76,-36.24 -79.94,-36.24l-82.61,0l0,432.51l41.11,0l0,-134.02l41.5,0c35.18,0 61.82,-13.15 79.94,-39.44c18.12,-26.3 27.18,-64.93 27.18,-115.89c0,-47.11 -9.06,-82.75 -27.18,-106.92Z" style="fill:#fff;fill-rule:nonzero;"/><path d="M4754.45,1266.44l-55.34,0l0,-152.29l55.34,0c15.68,0 27.9,6.85 36.66,20.56c8.76,13.71 13.14,33.25 13.14,58.63c0,23.15 -4.38,41.13 -13.14,53.91c-8.76,12.8 -20.98,19.19 -36.66,19.19Zm43.67,45.97c9.14,-5.85 17.08,-13.86 23.82,-24.04c15.88,-23.96 23.82,-57.66 23.82,-101.12c0,-41.83 -7.94,-74.11 -23.82,-96.85c-15.88,-22.74 -38.38,-34.12 -67.49,-34.12l-96.45,0l0,432.51l41.11,0l0,-164.48l55.34,0c1.12,0 2.23,-0.03 3.33,-0.06l50.82,164.54l47.43,0l-57.91,-176.38Z" style="fill:#fff;fill-rule:nonzero;"/><path d="M4308.72,1634.33c0.86,-13.73 10.28,-24.11 18.07,-30.42c18.46,-14.96 47.39,-23.23 75.5,-21.59c21.15,1.23 40.9,7.77 55.62,18.42c13.18,9.53 20.73,21.4 21.31,33.46l0,77.54l-170.5,0l0,-77.41Zm217.58,77.41l-0.63,0l0,-77.94l-0.02,-0.72c-0.92,-24.61 -14.68,-47.74 -38.72,-65.13c-22.09,-15.97 -51.08,-25.75 -81.65,-27.53c-40.72,-2.38 -81.65,9.67 -109.49,32.22c-20.49,16.59 -32.39,37.98 -33.5,60.21l-0.02,0.48l0,78.41l-0.63,0c-20.82,0 -37.7,15.26 -37.7,34.09l0,199.9c0,18.82 16.88,34.08 37.7,34.08l264.66,0c20.82,0 37.7,-15.26 37.7,-34.08l0,-199.9c0,-18.83 -16.88,-34.09 -37.7,-34.09Z" style="fill:#fff;fill-rule:nonzero;"/><path d="M4376.89,1906c-3.54,0 -6.89,-1.63 -9.08,-4.42l-62.97,-80.11c-3.94,-5.02 -3.07,-12.28 1.95,-16.22c5.01,-3.95 12.28,-3.08 16.22,1.94l53.49,68.06l88.14,-122.05c3.74,-5.17 10.96,-6.34 16.13,-2.6c5.18,3.73 6.34,10.96 2.61,16.13l-97.12,134.48c-2.12,2.94 -5.5,4.71 -9.13,4.78c-0.08,0.01 -0.16,0.01 -0.24,0.01Z" style="fill:#191919;fill-rule:nonzero;"/><path d="M4393.97,700.026c-441.11,0 -799.97,358.864 -799.97,799.974c0,441.11 358.86,799.97 799.97,799.97c441.11,0 799.97,-358.86 799.97,-799.97c0,-441.11 -358.86,-799.974 -799.97,-799.974Zm0,1614.944c-110.02,0 -216.75,-21.55 -317.23,-64.04c-97.05,-41.05 -184.2,-99.81 -259.04,-174.66c-74.85,-74.84 -133.61,-162 -174.66,-259.04c-42.5,-100.48 -64.04,-207.21 -64.04,-317.23c0,-110.02 21.54,-216.75 64.04,-317.23c41.05,-97.04 99.81,-184.2 174.66,-259.043c74.84,-74.844 161.99,-133.605 259.04,-174.653c100.48,-42.499 207.21,-64.048 317.23,-64.048c110.02,0 216.75,21.549 317.23,64.048c97.04,41.048 184.2,99.809 259.04,174.653c74.85,74.843 133.61,162.003 174.65,259.043c42.5,100.48 64.05,207.21 64.05,317.23c0,110.02 -21.55,216.75 -64.05,317.23c-41.04,97.04 -99.8,184.2 -174.65,259.04c-74.84,74.85 -162,133.61 -259.04,174.66c-100.48,42.49 -207.21,64.04 -317.23,64.04Z" style="fill:#fff;fill-rule:nonzero;"/><path d="M4248.06,2393.22c-24.09,-3.48 -45.36,-0.34 -56.221,1.88l-12.409,85.79l58.78,8.5l2.69,-18.54l-36.28,-5.24l7.69,-53.23c5.68,-1.88 16.32,-2.5 31.41,-0.32c41.57,6.01 64.98,36.7 58.43,81.97c-6.47,44.75 -38.71,67.67 -82.13,61.39c-18.01,-2.61 -29.431,-7.77 -38.35,-13.39l-8.27,18c7.14,4.82 22.64,11.65 43.29,14.64c59.84,8.65 102.01,-24.99 109.97,-78.17c4.02,-27.8 -2.06,-53.01 -15.28,-70.06c-15.06,-19.21 -36.31,-29.31 -63.32,-33.22Z" style="fill:#f9cc10;fill-rule:nonzero;"/><path d="M4036.4,2356.21l73.73,25.82l-21.48,61.36l-66.16,-23.17l-6.37,18.18l66.16,23.17l-18.84,53.78l-69.94,-24.49l-6.45,18.43l91.91,32.19l59.6,-170.19l-95.7,-33.51l-6.46,18.43Z" style="fill:#fff;fill-rule:nonzero;"/><path d="M3977,2306.14l-39.05,66.42c-15.18,25.83 -25.71,44.79 -36.08,65.07l-0.82,-0.18c2.05,-21.44 2.11,-45.3 1.44,-68.97l-2.98,-107.9l-20.3,-11.93l-91.39,155.45l18.92,11.12l38.23,-65.04c14.24,-24.22 24.9,-43.4 35.26,-65.24l0.59,0.04c-1.97,20.25 -2.6,41.91 -1.78,66.91l3.58,107.94l21.91,12.88l91.38,-155.45l-18.91,-11.12Z" style="fill:#fff;fill-rule:nonzero;"/><path d="M3754.64,2143.42l-12.95,14.62l58.49,51.79l-43.1,48.67l-52.48,-46.47l-12.77,14.42l52.48,46.47l-37.78,42.67l-55.49,-49.13l-12.94,14.62l72.9,64.56l119.55,-135l-75.91,-67.22Z" style="fill:#fff;fill-rule:nonzero;"/><path d="M3578.06,2187.54c-3.16,-2.27 -8.99,-7.89 -15.96,-16.7c-15.08,-19.46 -17.59,-38.98 0.66,-53.44c16.14,-12.8 36.64,-8.9 52.09,10.6l14.79,18.66l-51.58,40.88Zm126.65,-100.37l-61.23,48.52l-13.63,-17.19c-12.5,-17.06 -11.14,-30.429 5.04,-50.08c14.45,-17.94 24.12,-30.72 26.28,-36.19l-14.96,-18.87c-3.13,7.26 -14.1,21.42 -30.15,41.65c-12.02,14.99 -16.93,29.46 -12.06,43.36l-0.63,0.5c-16.83,-10.9 -38.51,-12.84 -57.17,1.95c-10.9,8.64 -17.39,20.27 -18.03,32.39c-0.99,15.12 5.42,30.52 20.87,50.02c9.98,12.58 21.49,24.96 30.69,32.69l139.43,-110.51l-14.45,-18.24Z" style="fill:#fff;fill-rule:nonzero;"/><path d="M3483.46,1984.34c-11.34,1.92 -22.44,4.32 -33.18,6.84l-0.25,-0.47c8.06,-7.16 16.35,-14.43 24.98,-23.39l38.08,-39.44l24.84,48.29l-54.47,8.17Zm131.85,-21.5l-59,9.29l-29.25,-56.86l41.62,-43.07l-11.38,-22.13l-132.19,137.21l12.85,24.98l188.37,-28.01l-11.02,-21.41Z" style="fill:#fff;fill-rule:nonzero;"/><path d="M3513.6,1708.36l-18.71,5.58l22,73.84l-154.11,45.91l6.65,22.31l172.82,-51.49l-28.65,-96.15Z" style="fill:#fff;fill-rule:nonzero;"/><path d="M3474.96,1558.25l-142.31,2.31c-1.44,-6.13 -2.66,-15.21 -2.85,-27.25c-0.8,-49.22 25.83,-73.73 68.36,-74.15c48.69,-0.79 76.95,25.78 77.75,75.53c0.15,9.1 0.02,17.66 -0.95,23.56Zm19.75,-19.31c-0.57,-35.05 -10.11,-62.72 -27.24,-79.3c-16.86,-16.58 -41.08,-25.29 -70.5,-24.81c-29.16,0.47 -49.87,10.17 -64.33,26.46c-14.45,16.02 -21.83,39.95 -21.28,73.39c0.29,18.46 2.17,35.29 4.54,49.43l177.36,-2.88c1.14,-11.79 1.72,-25.71 1.45,-42.29Z" style="fill:#f9cc10;fill-rule:nonzero;"/><path d="M3431.76,1337.92l-47.62,-27.68c-10.05,-5.59 -20.22,-10.65 -30.17,-15.4l0.1,-0.53c10.76,-0.54 21.78,-1.04 34.11,-2.63l54.38,-6.99l-10.8,53.23Zm68.73,37.97l-51.86,-29.63l12.72,-62.67l59.41,-7.6l4.95,-24.38l-188.95,24.45l-5.59,27.53l164.54,95.89l4.78,-23.59Z" style="fill:#fff;fill-rule:nonzero;"/><path d="M3398.45,1135.7l149.8,57.69l8.46,-21.97l-149.8,-57.69l19.81,-51.43l-18.48,-7.12l-47.97,124.59l18.47,7.11l19.71,-51.18Z" style="fill:#fff;fill-rule:nonzero;"/><path d="M3503.61,990.982c-7.66,-8.584 -15.59,-16.709 -23.44,-24.467l0.28,-0.46c10.34,3.018 20.91,6.174 33.08,8.723l53.65,11.275l-27.69,46.717l-35.88,-41.788Zm88.32,100.238l-39.24,-45.03l32.6,-55.003l58.61,12.353l12.69,-21.408l-186.5,-39.009l-14.32,24.166l123.88,144.651l12.28,-20.72Z" style="fill:#fff;fill-rule:nonzero;"/><path d="M3647.31,749.495c2.2,-3.525 7.31,-9.415 14.73,-16.366c18.75,-17.559 38.91,-20.686 55.19,-3.309c17.01,18.159 13.84,39.823 -6.66,59.028c-5.66,5.304 -10.71,9.303 -15.34,11.802l-47.92,-51.155Zm110.29,117.736l-49.38,-52.718c4.82,-2.682 9.69,-6.876 14.76,-11.632c16.6,-15.547 26.67,-34.146 26.69,-52.127c0.24,-13.053 -5.03,-25.717 -16.19,-37.628c-10.97,-11.715 -24.23,-17.258 -37.3,-16.739c-14.4,0.288 -30.36,7.906 -47.15,23.636c-13.67,12.803 -23.31,24.035 -30.23,33.083l121.82,130.038l16.98,-15.913Z" style="fill:#f9cc10;fill-rule:nonzero;"/><path d="M3796.02,626.834c2.57,-2.925 8.75,-8.164 18.2,-14.237c20.85,-13.079 40.53,-13.636 53.11,5.948c11.14,17.332 5.23,37.344 -15.7,50.793l-20.04,12.87l-35.57,-55.374Zm87.34,135.959l-42.22,-65.729l18.46,-11.857c18.21,-10.749 31.38,-8.077 49.33,9.965c16.42,16.161 28.18,27.047 33.41,29.734l20.26,-13.015c-6.91,-3.828 -19.92,-16.146 -38.46,-34.123c-13.72,-13.444 -27.64,-19.766 -41.95,-16.298l-0.44,-0.675c12.52,-15.67 16.59,-37.048 3.72,-57.082c-7.52,-11.705 -18.45,-19.312 -30.44,-21.148c-14.95,-2.481 -30.91,2.369 -51.85,15.818c-13.5,8.676 -26.96,18.912 -35.57,27.301l96.17,149.69l19.58,-12.581Z" style="fill:#fff;fill-rule:nonzero;"/><path d="M4013.67,510.584c36.24,-13.839 67.1,14.472 79.89,47.963c14.6,38.241 7.23,77.428 -27.26,90.599c-34.25,13.076 -66.05,-11.722 -79.8,-47.713c-14.12,-36.991 -8.82,-77.104 27.17,-90.849Zm58.15,156.785c42.99,-16.416 66.49,-60.617 44.35,-118.602c-19.09,-49.988 -62.29,-73.871 -108.28,-56.31c-44.99,17.18 -64.87,64.865 -44.44,118.352c19.47,50.988 63.88,73.549 108.37,56.56Z" style="fill:#fff;fill-rule:nonzero;"/><path d="M4226.73,620.425l23.2,-4.021l-27.42,-158.167l54.3,-9.414l-3.38,-19.507l-131.54,22.804l3.38,19.507l54.04,-9.368l27.42,158.166Z" style="fill:#fff;fill-rule:nonzero;"/><path d="M4368.67,585.947l-1.05,-65.003l70.09,-1.136l-0.32,-19.26l-70.08,1.136l-0.92,-56.978l74.09,-1.201l-0.31,-19.527l-97.37,1.577l2.92,180.296l101.38,-1.642l-0.32,-19.528l-78.11,1.266Z" style="fill:#fff;fill-rule:nonzero;"/><path d="M4622.9,607.163c-10.03,2.799 -24.77,3.11 -38.72,0.573c-43.17,-7.85 -63.11,-40.3 -55.21,-83.733c8.47,-46.591 40.95,-68.151 82.54,-60.588c14.74,2.68 26.54,8.088 34.46,13.88l8.92,-17.684c-5.48,-4.26 -18.57,-11.535 -40.68,-15.556c-55.01,-10.004 -99.5,20.793 -109.6,76.334c-10.58,58.174 21.32,96.607 71.33,105.701c21.59,3.925 39.2,2.777 48.39,0.097l-1.43,-19.024Z" style="fill:#fff;fill-rule:nonzero;"/><path d="M4732.04,670.837l58.43,-149.514l51.33,20.06l7.21,-18.44l-124.35,-48.593l-7.21,18.44l51.09,19.963l-58.43,149.515l21.93,8.569Z" style="fill:#fff;fill-rule:nonzero;"/><path d="M4841.45,724.169l87.78,-157.516l-20.34,-11.331l-87.77,157.517l20.33,11.33Z" style="fill:#fff;fill-rule:nonzero;"/><path d="M4962.94,694.132c24.61,-31.023 61.81,-46.93 92,-22.988c30.39,24.107 21.79,65.091 -0.49,93.178c-25.44,32.071 -62.9,45.723 -91.83,22.779c-28.72,-22.777 -23.62,-62.786 0.32,-92.969Zm-13.17,107.02c36.05,28.597 86.05,26.258 124.63,-22.372c33.25,-41.922 31.75,-91.262 -6.82,-121.854c-37.73,-29.926 -88.89,-22.694 -124.46,22.163c-33.92,42.76 -30.66,92.469 6.65,122.063Z" style="fill:#fff;fill-rule:nonzero;"/><path d="M5065.59,904.478l59.92,-48.437c23.3,-18.836 39.82,-32.875 56.66,-48.211l0.72,0.456c-9.47,19.351 -17.93,41.665 -25.63,64.057l-35.17,102.046l14.8,18.31l140.24,-113.355l-13.79,-17.062l-58.67,47.427c-21.85,17.66 -38.58,31.867 -55.96,48.667l-0.54,-0.247c8.97,-18.263 17.19,-38.319 25.22,-62.008l34.62,-102.293l-15.98,-19.767l-140.24,113.355l13.8,17.062Z" style="fill:#fff;fill-rule:nonzero;"/><path d="M5366.37,1077.77c2.41,3.06 6.44,10.08 10.69,20.48c9.07,22.89 6.04,42.34 -15.51,51.15c-19.07,7.79 -37.67,-1.65 -47.09,-24.68l-9.01,-22.04l60.92,-24.91Zm-149.57,61.16l72.31,-29.57l8.3,20.31c7.26,19.86 2.24,32.32 -18.77,46.69c-18.88,13.21 -31.72,22.8 -35.31,27.45l9.11,22.28c5.02,-6.09 19.5,-16.64 40.55,-31.61c15.71,-11.05 24.46,-23.58 23.65,-38.28l0.75,-0.31c13.13,15.16 33.41,23.05 55.45,14.04c12.87,-5.27 22.34,-14.63 26.33,-26.09c5.16,-14.25 3.29,-30.83 -6.13,-53.86c-6.07,-14.85 -13.69,-29.95 -20.37,-39.93l-164.68,67.33l8.81,21.55Z" style="fill:#f9cc10;fill-rule:nonzero;"/><path d="M5286.05,1371.83l19.1,-4.08l-16.29,-76.4l63.58,-13.56l14.62,68.56l18.84,-4.02l-14.62,-68.55l55.73,-11.88l15.46,72.48l19.1,-4.08l-20.31,-95.24l-176.36,37.6l21.15,99.17Z" style="fill:#fff;fill-rule:nonzero;"/><path d="M5476.58,1506.1c-1.13,-60.45 -41.14,-96.63 -94.91,-95.88c-28.09,0.52 -51.98,10.6 -66.67,26.4c-16.52,17.97 -23.05,40.57 -22.54,67.85c0.45,24.34 6.99,44.83 10.93,55.19l86.67,-1.63l-1.12,-59.38l-18.72,0.35l0.69,36.65l-53.77,1c-2.77,-5.3 -5.11,-15.69 -5.39,-30.93c-0.79,-42 25.71,-70.06 71.45,-70.92c45.2,-0.84 73.02,27.26 73.85,71.13c0.34,18.19 -2.91,30.29 -7.01,40l19.1,5.26c3.59,-7.82 7.84,-24.22 7.44,-45.09Z" style="fill:#fff;fill-rule:nonzero;"/><path d="M5274.71,1678.33c-7.54,38.32 9.15,71.32 63.49,82.01l103.17,20.28l4.54,-23.1l-104.74,-20.59c-39.12,-7.69 -53.14,-27.9 -47.98,-54.15c4.64,-23.63 24.9,-37.91 64.54,-30.12l104.74,20.59l4.55,-23.1l-104.22,-20.49c-54.87,-10.78 -80.97,12.44 -88.09,48.67Z" style="fill:#fff;fill-rule:nonzero;"/><path d="M5207.06,1897.14l18.1,7.33l28.93,-71.41l149.03,60.36l8.73,-21.58l-167.13,-67.69l-37.66,92.99Z" style="fill:#fff;fill-rule:nonzero;"/><path d="M5264.77,2051.4c7.35,8.84 15,17.24 22.57,25.26l-0.29,0.451c-10.23,-3.371 -20.68,-6.891 -32.76,-9.861l-53.23,-13.139l29.3,-45.731l34.41,43.02Zm-84.78,-103.25l37.65,46.36l-34.49,53.841l-58.15,-14.381l-13.42,20.95l185.02,45.47l15.16,-23.65l-118.78,-148.87l-12.99,20.28Z" style="fill:#fff;fill-rule:nonzero;"/><path d="M5188.59,2208.9l-119.04,-107.71l-15.79,17.46l119.03,107.71l-36.98,40.87l14.69,13.28l89.57,-99l-14.68,-13.28l-36.8,40.67Z" style="fill:#fff;fill-rule:nonzero;"/><path d="M4965.09,2202.13l116.29,137.81l17.79,-15.01l-116.29,-137.81l-17.79,15.01Z" style="fill:#fff;fill-rule:nonzero;"/><path d="M4939.22,2420.6c-33.3,19.91 -68.59,-2.63 -86.99,-33.4c-21.01,-35.13 -20.54,-75 11.15,-93.95c31.46,-18.81 67.09,0.1 86.86,33.17c20.32,33.99 22.04,74.41 -11.02,94.18Zm-84.44,-144.34c-39.49,23.62 -54.98,71.22 -23.13,124.49c27.46,45.93 74.15,61.97 116.4,36.71c41.33,-24.72 52.65,-75.13 23.27,-124.27c-28.01,-46.84 -75.66,-61.37 -116.54,-36.93Z" style="fill:#fff;fill-rule:nonzero;"/><path d="M4717.25,2347.95l23.95,73.23c9.32,28.47 16.57,48.9 24.91,70.1l-0.68,0.5c-14.72,-15.73 -32.56,-31.56 -50.75,-46.72l-82.87,-69.16l-22.38,7.32l56.07,171.38l20.85,-6.82l-23.45,-71.71c-8.74,-26.7 -16.07,-47.38 -25.59,-69.6l0.42,-0.42c13.88,14.88 29.7,29.69 48.99,45.62l83.29,68.74l24.16,-7.91l-56.07,-171.38l-20.85,6.83Z" style="fill:#fff;fill-rule:nonzero;"/></g></g></g></svg>
