<?xml version="1.0" encoding="UTF-8"?>
<svg id="Layer_1" xmlns="http://www.w3.org/2000/svg" xmlns:xlink="http://www.w3.org/1999/xlink" viewBox="0 0 786 854">
  <defs>
    <style>
      .cls-1 {
        fill: #0e527d;
      }

      .cls-2 {
        fill: url(#linear-gradient);
        fill-rule: evenodd;
      }
    </style>
    <linearGradient id="linear-gradient" x1="748.92" y1="429.07" x2="29.8" y2="429.07" gradientTransform="translate(0 856) scale(1 -1)" gradientUnits="userSpaceOnUse">
      <stop offset="0" stop-color="#0e527d"/>
      <stop offset="1" stop-color="#6fc9c0" stop-opacity="0"/>
    </linearGradient>
  </defs>
  <path class="cls-2" d="M445.42,89.02c-32.44-18.73-72.41-18.73-104.85,0l-214,123.55c-32.44,18.73-52.42,53.34-52.42,90.8v247.11c0,37.46,19.98,72.07,52.42,90.8l214,123.55c32.44,18.73,72.41,18.73,104.85,0l214-123.55c32.44-18.73,52.42-53.34,52.42-90.8v-247.11c0-37.46-19.98-72.07-52.42-90.8l-214-123.55ZM303.5,24.81c55.38-31.98,123.62-31.98,179,0l214,123.55c55.38,31.98,89.5,91.07,89.5,155.02v247.11c0,63.95-34.12,123.04-89.5,155.02l-214,123.55c-55.38,31.97-123.62,31.97-179,0l-214-123.55C34.12,673.53,0,614.44,0,550.49v-247.11c0-63.95,34.12-123.04,89.5-155.02L303.5,24.81Z"/>
  <g>
    <path class="cls-1" d="M619.81,258.93l-191.58-109.94c-20.83-11.96-46.71-11.96-67.55,0l-191.59,109.94c-20.83,11.95-33.77,34.23-33.77,58.15v219.89c0,23.92,12.94,46.19,33.77,58.14l191.59,109.95c10.42,5.97,22.1,8.96,33.77,8.96s23.36-2.99,33.78-8.96l191.58-109.94c20.83-11.96,33.78-34.24,33.78-58.15v-219.89c0-23.91-12.94-46.19-33.78-58.14ZM607.42,573.78l-191.58,109.94c-3.06,1.76-6.31,3.09-9.64,4.03v-78.23c0-6.49-5.26-11.75-11.75-11.75s-11.75,5.26-11.75,11.75v78.23c-3.33-.94-6.57-2.27-9.64-4.03l-191.59-109.95c-13.19-7.57-21.38-21.67-21.38-36.81v-98.2h55.33c6.49,0,11.75-5.26,11.75-11.75s-5.26-11.75-11.75-11.75h-55.33v-98.2c0-15.14,8.19-29.24,21.38-36.81l191.59-109.94c3.06-1.76,6.31-3.09,9.64-4.03v78.23c0,6.49,5.26,11.75,11.75,11.75s11.75-5.26,11.75-11.75v-78.23c3.33.94,6.57,2.27,9.64,4.03l191.58,109.95c13.19,7.57,21.39,21.67,21.39,36.81v98.2h-55.33c-6.49,0-11.75,5.26-11.75,11.75s5.26,11.75,11.75,11.75h55.33v98.2c0,15.14-8.19,29.24-21.39,36.81Z"/>
    <path class="cls-1" d="M292.55,427.02c.52-.56.79-1.22.79-1.97v-41.05l27.52,41.73c.15.22.51.64,1.07,1.24.56.6,1.45.9,2.65.9h12.07c.83,0,1.5-.28,2.03-.85.53-.56.79-1.26.79-2.09v-73.2c0-.83-.26-1.5-.79-2.03-.53-.53-1.2-.79-2.03-.79h-13.53c-.83,0-1.51.26-2.03.79-.53.53-.79,1.2-.79,2.03v42.63l-27.52-43.31c-.15-.3-.51-.73-1.07-1.3s-1.49-.85-2.76-.85h-11.96c-.83,0-1.5.26-2.03.79-.53.53-.79,1.2-.79,2.03v73.31c0,.75.26,1.41.79,1.97.52.56,1.2.85,2.03.85h13.54c.83,0,1.5-.28,2.03-.85Z"/>
    <path class="cls-1" d="M356.84,427.87h15.11c.83,0,1.52-.28,2.09-.85.56-.56.85-1.22.85-1.97v-73.31c0-.83-.28-1.5-.85-2.03-.56-.53-1.26-.79-2.09-.79h-15.11c-.83,0-1.51.26-2.03.79-.53.53-.79,1.2-.79,2.03v73.31c0,.75.26,1.41.79,1.97.52.56,1.2.85,2.03.85Z"/>
    <path class="cls-1" d="M448.42,417.49c2.93-3.68,4.4-8.08,4.4-13.2,0-4.58-1-8.4-2.99-11.45-1.99-3.05-5.09-5.53-9.31-7.44-4.21-1.92-9.74-3.51-16.58-4.79-4.14-.9-7.39-1.77-9.76-2.59-2.37-.83-4.06-1.81-5.08-2.93-1.01-1.13-1.52-2.44-1.52-3.95,0-2.41.92-4.19,2.76-5.36,1.84-1.16,4.42-1.75,7.73-1.75,3.08,0,5.58.62,7.5,1.86,1.92,1.24,3.1,2.69,3.55,4.34.45.68.98,1.17,1.58,1.47.6.3,1.32.45,2.14.45h14.89c.75,0,1.33-.24,1.75-.73.41-.49.62-1.03.62-1.64-.07-2.41-.81-4.87-2.2-7.39-1.39-2.52-3.44-4.91-6.15-7.16-2.71-2.25-6.03-4.06-9.98-5.41-3.95-1.35-8.51-2.03-13.7-2.03-6.39,0-11.92,1.02-16.58,3.05-4.66,2.03-8.29,4.85-10.88,8.46-2.59,3.61-3.89,7.71-3.89,12.29s1.05,8.55,3.16,11.67c2.1,3.12,5.17,5.64,9.19,7.56,4.02,1.92,8.89,3.48,14.61,4.68,4.44.9,7.99,1.79,10.66,2.65,2.67.87,4.6,1.82,5.81,2.88,1.2,1.05,1.81,2.44,1.81,4.17,0,2.33-1.11,4.17-3.33,5.53-2.22,1.35-5.51,2.03-9.87,2.03-2.56,0-4.74-.32-6.54-.96-1.81-.64-3.25-1.48-4.34-2.54-1.09-1.05-1.94-2.14-2.54-3.27-.45-.6-.96-1.09-1.52-1.47-.56-.38-1.37-.56-2.42-.56h-14.21c-.68,0-1.26.24-1.75.73-.49.49-.73,1.03-.73,1.64.15,3.91,1.5,7.6,4.06,11.05,2.56,3.46,6.32,6.26,11.28,8.4,4.96,2.14,11.2,3.21,18.72,3.21,6.69,0,12.57-1,17.65-2.99,5.08-1.99,9.08-4.83,12.01-8.51Z"/>
    <path class="cls-1" d="M520.04,348.92h-60.68c-.83,0-1.5.26-2.03.79s-.79,1.2-.79,2.03v12.07c0,.75.26,1.41.79,1.97.53.56,1.2.85,2.03.85h20.08v58.42c0,.75.26,1.41.79,1.97.52.56,1.2.85,2.03.85h14.89c.83,0,1.5-.28,2.03-.85.53-.56.79-1.22.79-1.97v-58.42h20.08c.83,0,1.5-.28,2.03-.85.53-.56.79-1.22.79-1.97v-12.07c0-.83-.26-1.5-.79-2.03s-1.2-.79-2.03-.79Z"/>
    <path class="cls-1" d="M315.06,465.72c2.4-2.29,5.68-3.44,9.81-3.44,3.46,0,6.37.73,8.74,2.2,2.37,1.47,4.08,4.19,5.13,8.18.37,1.13.83,1.9,1.35,2.31.53.41,1.28.62,2.26.62h15.23c.68,0,1.26-.23,1.75-.68.49-.45.69-1.01.62-1.69-.08-4.21-1-7.99-2.76-11.33-1.77-3.35-4.23-6.2-7.39-8.57-3.16-2.37-6.84-4.17-11.05-5.41-4.21-1.24-8.8-1.86-13.76-1.86-6.99,0-13.05,1.17-18.16,3.5-5.11,2.33-9.1,5.79-11.96,10.37-2.86,4.59-4.44,10.15-4.74,16.69-.08,3.23-.11,6.62-.11,10.15s.04,6.84.11,9.93c.3,6.69,1.86,12.29,4.68,16.8,2.82,4.51,6.78,7.93,11.9,10.26,5.11,2.33,11.2,3.5,18.27,3.5,4.96,0,9.55-.62,13.76-1.86,4.21-1.24,7.9-3.05,11.05-5.41,3.16-2.37,5.62-5.23,7.39-8.57,1.77-3.34,2.69-7.12,2.76-11.33.07-.68-.13-1.24-.62-1.69-.49-.45-1.07-.68-1.75-.68h-15.23c-.98,0-1.75.21-2.31.62-.56.41-1,1.18-1.3,2.31-.98,3.91-2.67,6.62-5.08,8.12-2.41,1.5-5.34,2.25-8.8,2.25-4.14,0-7.41-1.15-9.81-3.44-2.41-2.29-3.72-6.11-3.95-11.45-.22-6.47-.22-12.78,0-18.95.23-5.34,1.54-9.15,3.95-11.45Z"/>
    <path class="cls-1" d="M421.75,483.65c-4.21-1.92-9.74-3.51-16.58-4.79-4.13-.9-7.39-1.77-9.76-2.59-2.37-.83-4.06-1.81-5.08-2.93-1.01-1.13-1.52-2.44-1.52-3.95,0-2.41.92-4.19,2.76-5.36,1.84-1.16,4.42-1.75,7.73-1.75,3.08,0,5.58.62,7.5,1.86,1.92,1.24,3.1,2.69,3.55,4.34.45.68.98,1.17,1.58,1.47.6.3,1.32.45,2.14.45h14.89c.75,0,1.33-.24,1.75-.73.41-.49.62-1.03.62-1.64-.07-2.41-.81-4.87-2.2-7.39s-3.44-4.91-6.15-7.16c-2.71-2.25-6.03-4.06-9.98-5.41-3.95-1.35-8.52-2.03-13.7-2.03-6.39,0-11.92,1.02-16.58,3.05-4.66,2.03-8.29,4.85-10.88,8.46-2.59,3.61-3.89,7.71-3.89,12.29s1.05,8.55,3.16,11.67c2.1,3.12,5.17,5.64,9.19,7.56,4.02,1.92,8.89,3.48,14.61,4.68,4.44.9,7.99,1.79,10.66,2.65,2.67.87,4.6,1.82,5.81,2.88,1.2,1.05,1.81,2.44,1.81,4.17,0,2.33-1.11,4.17-3.33,5.53-2.22,1.35-5.51,2.03-9.87,2.03-2.56,0-4.74-.32-6.54-.96-1.81-.64-3.25-1.48-4.34-2.54-1.09-1.05-1.94-2.14-2.54-3.27-.45-.6-.96-1.09-1.52-1.47-.56-.38-1.37-.56-2.42-.56h-14.21c-.68,0-1.26.24-1.75.73s-.73,1.03-.73,1.64c.15,3.91,1.5,7.6,4.06,11.05,2.56,3.46,6.32,6.26,11.28,8.4,4.96,2.14,11.2,3.21,18.72,3.21,6.69,0,12.58-1,17.65-2.99,5.08-1.99,9.08-4.83,12.01-8.51,2.93-3.68,4.4-8.08,4.4-13.2,0-4.58-1-8.4-2.99-11.45-1.99-3.05-5.09-5.53-9.3-7.44Z"/>
    <path class="cls-1" d="M498.78,447.17h-51.88c-.83,0-1.51.26-2.03.79-.53.53-.79,1.2-.79,2.03v73.31c0,.75.26,1.41.79,1.97.52.56,1.2.85,2.03.85h14.21c.83,0,1.5-.28,2.03-.85.52-.56.79-1.22.79-1.97v-25.49h32.59c.83,0,1.5-.28,2.03-.85.52-.56.79-1.22.79-1.97v-11.28c0-.83-.26-1.52-.79-2.09-.53-.56-1.2-.85-2.03-.85h-32.59v-16.58h34.85c.83,0,1.5-.26,2.03-.79.52-.52.79-1.2.79-2.03v-11.39c0-.83-.26-1.5-.79-2.03-.53-.53-1.2-.79-2.03-.79Z"/>
  </g>
</svg>
