<svg viewBox="0 0 369 73" xmlns="http://www.w3.org/2000/svg" xml:space="preserve" style="fill-rule:evenodd;clip-rule:evenodd;stroke-linejoin:round;stroke-miterlimit:2"><path d="M143.93 16 124.3 53l-6.62-13.29h-9.63L100.76 53l-19.5-37H71.18l24.94 46.19a4.926 4.926 0 0 0 6.83 2 5.005 5.005 0 0 0 1.85-2l7.5-14.12 7.42 14.12a5.134 5.134 0 0 0 1.86 2 4.679 4.679 0 0 0 2.46.66 4.823 4.823 0 0 0 2.48-.66 4.996 4.996 0 0 0 1.9-2L153.34 16h-9.41ZM174.47 16a3.83 3.83 0 0 0-2.36-.73 4 4 0 0 0-2.38.73 6.25 6.25 0 0 0-1.73 2l-27.72 46.18h9.62l7.38-12.48h28.91l7.62 12.48H204L176.16 18a6.57 6.57 0 0 0-1.69-2Zm-13.36 29.2 10.68-18.06 10.74 18-21.42.06ZM253.48 20.23A3.765 3.765 0 0 0 252 17a5.366 5.366 0 0 0-3.26-1H207v8h32.8l-31.74 32a5.005 5.005 0 0 0-1.71 3.54 3.773 3.773 0 0 0 1.42 3.19 5.277 5.277 0 0 0 3.31 1.08h42.2v-8.02H220l31.74-32a5.003 5.003 0 0 0 1.74-3.56ZM305.42 42.89a19.112 19.112 0 0 1-.91 6.24 9.255 9.255 0 0 1-2.91 4.24 13.003 13.003 0 0 1-5.4 2.42 45.753 45.753 0 0 1-16.72 0 13.003 13.003 0 0 1-5.4-2.42 9.264 9.264 0 0 1-2.92-4.24 19.16 19.16 0 0 1-.89-6.24V16h-8.7v26.89A29.011 29.011 0 0 0 263 52.6a15.92 15.92 0 0 0 4.57 6.87 19.739 19.739 0 0 0 8.06 4 46.085 46.085 0 0 0 11.9 1.33 46.585 46.585 0 0 0 12-1.33 19.819 19.819 0 0 0 8.05-4 16.003 16.003 0 0 0 4.58-6.87 29.256 29.256 0 0 0 1.46-9.71V16h-8.22l.02 26.89ZM360.06 15.97v19.95h-30.37V15.97h-8.43v48.41h8.43V43.42h30.37v20.96h8.42V15.97h-8.42ZM51.53 0l-8.92 18.76H26.25L16.48 0l-6.8 23.83L.34 34.49l21 19.29 8.19 18.87h9.37l7.74-18.54L68.1 34.66l-9.56-10.49L51.53 0ZM41.07 50.34c-.204.295-.484.53-.81.68a2.629 2.629 0 0 1-1.06.22 2.589 2.589 0 0 1-1-.22 1.901 1.901 0 0 1-.78-.68l-3.16-4.78L31 50.34a2.001 2.001 0 0 1-.78.68 2.63 2.63 0 0 1-1 .22 2.114 2.114 0 0 1-1.87-.9L11.16 35.25h4.48l13.68 12L32.06 43h4.3l3 4.27 13.86-12.5h4.1L41.07 50.34Z" style="fill:#00a9e5;fill-rule:nonzero" transform="translate(-.34)"/></svg>
