<?xml version="1.0" encoding="UTF-8" standalone="no"?><!DOCTYPE svg PUBLIC "-//W3C//DTD SVG 1.1//EN" "http://www.w3.org/Graphics/SVG/1.1/DTD/svg11.dtd"><svg width="249px" height="244px" version="1.1" xmlns="http://www.w3.org/2000/svg" xmlns:xlink="http://www.w3.org/1999/xlink" xml:space="preserve" xmlns:serif="http://www.serif.com/" style="fill-rule:evenodd;clip-rule:evenodd;stroke-linejoin:round;stroke-miterlimit:2;"><g><path d="M76.226,37.231c11.408,-11.889 22.91,-23.142 45.55,-36.286c5.865,-3.405 41.143,23.522 57.691,41.585c6.411,6.998 39.648,43.281 57.223,103.915c1.335,4.605 17.065,58.877 10.8,58.95c-4.768,0.055 -34.966,0.406 -59.101,7.697c-51.257,15.485 -58.682,33.562 -63.693,30.116c-50.89,-35.003 -80.854,-36.441 -117.183,-38.115c-4.76,-0.219 -7.159,0.955 -6.379,-3.659c12.373,-73.264 35.981,-122.612 75.092,-164.203Zm112.853,128.543c-2.519,-1.258 -6.496,-0.225 -25.153,-32.518c-8.187,-14.171 -30.002,-62.81 -35.925,-78.562c-1.868,-4.968 -1.285,-5.049 -2.762,-10.067c-0.578,-1.964 -1.923,-1.47 -2.228,0.536c-0.739,4.863 -0.745,4.799 -2.47,9.352c-2.399,6.333 -22.315,58.905 -33.358,77.805c-17.129,29.314 -17.589,29.668 -29.776,39.028c0.558,0.3 0.702,1.123 1.26,1.423c0.507,0.272 0.322,-0.323 5.871,-4.165c24.112,-16.696 80.274,-23.743 122.962,-0.997c0.943,-0.896 0.638,-1.015 1.58,-1.834Z" style="fill:#fbcc39;"/><g><path d="M9.482,202.58c0.397,-2.975 1.751,-1.998 14.821,-9.411c41.108,-23.314 68.676,-36.892 127.927,-3.178c2.253,1.282 4.917,3.035 16.383,8.24c13.521,6.138 13.752,6.373 26.787,8.397c-0.985,1.496 -0.901,1.516 -1.005,1.628c-16.794,2.257 -42.365,11.892 -64.566,27.702c-5.615,3.998 -5.98,0.704 -14.378,-4.374c-4.051,-2.449 -49.465,-32.124 -105.968,-29.004Z"/><path d="M94.534,162.532c0.872,-0.261 0.782,-0.36 1.66,-0.497c53.451,-8.32 73.766,-2.623 131.418,31.268c11.864,6.974 17.22,9.316 12.912,9.282c-23.87,-0.187 -24.028,3.206 -34.045,2.202c-28.255,-2.831 -52.791,-18.565 -60.227,-22.846c-40.689,-23.427 -52.349,-15.448 -52.365,-17.899c-0.002,-0.294 0.684,-0.264 0.682,-0.558l-0.034,-0.953Z"/></g><g><g><path d="M88.613,31.598c1.167,-1.373 1.136,-1.278 2.322,-2.732c8.219,-10.07 29.233,-23.358 30.669,-24.075c1.058,-0.528 1.567,0.384 1.282,14.724c-1.289,64.671 -54.906,86.041 -63.129,93.381c-1.735,1.549 -3.1,1.857 -2.818,-0.399c2.468,-19.775 -0.514,-41.748 31.675,-80.899Z"/><path d="M74.503,43.504c0.15,0.435 0.66,0.683 0.81,1.118c1.482,4.287 -19.756,13.171 -22.122,71.863c-0.239,5.932 -16.844,8.286 -33.772,32.942c-4.654,6.779 -1.737,-1.662 -1.655,-1.842c12.496,-27.364 8.478,-42.209 56.738,-104.081Z"/></g><g><path d="M52.252,172.158c-29.133,20.444 -33.54,19.631 -46.781,28.778c-1.109,-0.316 -1.43,-0.259 -1.166,-1.444c7.208,-32.441 6.234,-45.11 46.14,-75.059c5.243,-3.935 2.647,2.559 7.951,29.086c0.3,1.502 2.379,9.537 1.152,12.007c-0.327,0.659 -0.693,1.391 -7.295,6.633Z"/><path d="M107.671,79.49c-5.477,9.946 -8.095,20.063 -16.591,35.781c-1.976,3.655 -27.423,50.732 -28.703,43.29c-3.336,-19.384 -4.635,-19.143 -5.221,-36.05c-0.241,-6.948 13.458,-7.521 40.112,-33.271c7.604,-7.346 7.511,-12.262 10.404,-9.75Z"/><path d="M107.671,79.49c-5.477,9.946 -8.095,20.063 -16.591,35.781c-1.976,3.655 -27.423,50.732 -28.703,43.29c-3.336,-19.384 -4.635,-19.143 -5.221,-36.05c-0.241,-6.948 13.458,-7.521 40.112,-33.271c7.604,-7.346 7.511,-12.262 10.404,-9.75Z"/></g></g><g><g><path d="M161.087,31.898c31.007,36.338 31.392,71.752 32.119,77.634c0.038,0.311 0.639,5.176 -1.508,3.61c-16.067,-11.717 -34.624,-21.193 -51.737,-44.96c-15.659,-21.748 -16.262,-64.732 -12.504,-62.558c18.629,10.776 18.741,10.757 33.63,26.274Z"/><path d="M168.265,36.602c0.441,0.154 0.869,-0.648 1.31,-0.494c0.759,0.265 1.807,2.177 1.925,2.393c3.896,7.114 38.94,38.237 58.01,99.997c0.308,0.997 7.315,19.426 1.456,10.611c-15.038,-22.623 -32.843,-28.179 -33.467,-33.608c-5.926,-51.573 -12.1,-51.833 -29.234,-78.899Z"/></g><g><path d="M194.823,168.178c-4.17,-4.199 -6.102,-4.048 -4.396,-9.7c9.245,-30.644 4.548,-38.658 10.392,-34.423c38.755,28.09 39.579,48.733 45.202,75.47c0.801,3.809 -2.005,-0.251 -30.288,-16.45c-16.658,-9.541 -20.675,-14.673 -20.909,-14.897Z"/><path d="M145.577,81.089c27.619,30.161 32.994,25.67 46.779,37.581c4.141,3.578 -3.237,32.096 -3.939,34.809c-0.514,1.989 -0.911,6.756 -4.512,1.703c-24.542,-34.428 -29.377,-54.103 -39.554,-72.667c0.409,-0.475 0.817,-0.951 1.226,-1.426Z"/></g></g></g></svg>
